<?xml version="1.0" standalone="no"?>
<!DOCTYPE svg PUBLIC "-//W3C//DTD SVG 20010904//EN"
 "http://www.w3.org/TR/2001/REC-SVG-20010904/DTD/svg10.dtd">
<svg version="1.0" xmlns="http://www.w3.org/2000/svg"
 width="500.000000pt" height="500.000000pt" viewBox="0 0 500.000000 500.000000"
 preserveAspectRatio="xMidYMid meet">
<metadata>
Created by potrace 1.14, written by Peter Selinger 2001-2017
</metadata>
<g transform="translate(0.000000,500.000000) scale(0.100000,-0.100000)"
fill="#000000" stroke="none">
<path d="M1785 4986 c-16 -7 -38 -22 -47 -32 -45 -51 -45 -51 -43 -799 2 -787
-3 -728 70 -907 29 -72 129 -248 148 -260 24 -15 58 -8 66 14 6 17 1 33 -24
68 -84 119 -155 292 -171 417 -9 65 -8 1355 0 1388 13 51 91 57 123 9 15 -24
17 -72 17 -519 1 -400 4 -495 15 -508 11 -14 32 -17 117 -16 66 1 110 6 121
14 16 12 17 53 19 506 1 272 2 500 3 507 2 22 40 52 65 52 14 0 37 -11 52 -24
l28 -23 0 -501 c1 -395 4 -504 14 -514 9 -9 48 -13 129 -14 100 0 119 2 135
18 17 17 18 47 17 515 l0 498 26 22 c34 30 70 29 100 -2 l25 -24 0 -500 c0
-412 2 -502 14 -513 9 -10 44 -15 111 -17 80 -1 101 1 116 15 18 16 19 41 19
514 0 488 0 498 21 524 26 33 59 33 96 2 l27 -24 0 -683 c0 -681 0 -684 -23
-774 -28 -108 -73 -207 -141 -315 -37 -56 -50 -85 -45 -100 7 -23 43 -27 67
-7 39 31 130 198 171 314 54 149 55 169 53 901 -1 662 -1 678 -21 712 -29 48
-76 73 -141 74 -61 1 -97 -20 -128 -74 -19 -32 -20 -57 -20 -506 -1 -260 -5
-476 -9 -481 -5 -4 -26 -9 -48 -10 l-39 -2 0 481 c0 475 0 481 -22 519 -55 98
-202 104 -260 10 -23 -36 -23 -38 -25 -481 -1 -245 -2 -464 -3 -487 l0 -43
-70 0 -70 0 0 475 c0 261 0 478 -1 483 -1 4 -9 23 -19 43 -56 108 -221 102
-273 -11 -8 -17 -14 -173 -17 -505 l-5 -480 -35 -2 c-70 -3 -65 -42 -65 479
-1 438 -2 476 -19 510 -10 21 -32 46 -50 57 -43 26 -113 34 -151 17z"/>
<path d="M1935 2955 c-115 -22 -467 -84 -515 -90 -106 -14 -190 -50 -251 -107
-50 -47 -72 -82 -105 -168 -25 -68 -28 -87 -28 -205 0 -150 15 -205 81 -286
50 -61 93 -90 182 -125 l73 -29 -28 -12 c-53 -22 -111 -11 -171 33 -54 41 -73
29 -119 -69 -44 -97 -43 -217 3 -316 39 -83 185 -291 246 -347 114 -107 301
-186 442 -187 179 -1 412 90 581 225 218 176 397 272 523 283 25 2 72 -2 106
-9 78 -16 90 -12 110 31 58 123 -30 333 -140 333 -38 0 -77 -31 -128 -103
-121 -170 -242 -231 -452 -231 -127 0 -132 1 -295 70 -82 35 -171 42 -236 20
-72 -24 -76 -3 -10 59 73 69 93 127 74 224 -9 46 -11 190 -3 246 2 17 6 53 10
80 8 63 12 90 19 113 3 9 7 34 11 56 8 58 51 224 96 373 21 72 39 136 39 142
0 14 -26 13 -115 -4z"/>
<path d="M2940 2958 c0 -8 24 -100 54 -205 48 -165 76 -282 92 -373 2 -14 6
-36 9 -50 11 -60 23 -172 24 -227 1 -43 15 -42 81 7 62 46 145 80 196 80 49 0
39 -23 -14 -32 -55 -9 -140 -52 -197 -99 -26 -22 -50 -39 -55 -39 -12 0 -30
-74 -30 -121 1 -61 30 -121 86 -173 33 -31 45 -50 40 -61 -4 -11 -12 -15 -24
-10 -9 3 -29 9 -43 12 -25 5 -26 2 -33 -43 -3 -27 -18 -65 -32 -86 -36 -52
-73 -63 -131 -41 -36 15 -121 17 -141 5 -17 -11 230 -177 312 -210 101 -41
181 -15 297 95 51 49 79 65 79 45 0 -13 -92 -102 -138 -134 -98 -68 -185 -73
-296 -19 -70 35 -72 36 -186 117 -101 72 -122 84 -147 84 -20 0 -173 -86 -186
-104 -16 -24 178 -174 298 -231 39 -18 115 -47 170 -65 82 -26 117 -32 190
-32 289 -1 520 160 683 478 90 175 91 287 4 427 -13 20 -30 37 -37 37 -8 0
-36 -14 -62 -30 -57 -36 -107 -46 -145 -31 -31 12 -37 31 -10 31 10 0 49 15
87 34 178 85 257 280 209 512 -42 206 -145 313 -336 349 -40 8 -111 21 -158
30 -47 8 -96 17 -110 20 -13 3 -42 7 -64 11 -22 3 -43 7 -46 9 -3 2 -29 6 -59
10 -30 4 -63 9 -75 11 -23 5 -46 9 -113 19 -33 5 -43 4 -43 -7z"/>
<path d="M1995 1891 c-40 -25 -61 -49 -81 -96 -15 -37 -15 -40 2 -52 10 -7 28
-13 40 -13 28 0 88 -21 181 -65 77 -36 187 -56 246 -45 27 5 26 6 -21 32 -59
33 -146 116 -190 180 -52 76 -116 97 -177 59z"/>
<path d="M1591 1031 c-10 -7 -12 -28 -6 -102 3 -51 8 -96 10 -99 2 -3 6 -21 9
-40 25 -160 148 -381 290 -522 225 -224 551 -298 866 -197 168 54 321 166 435
320 73 99 163 300 181 406 3 15 7 35 9 43 2 8 7 51 11 95 5 68 3 83 -10 94
-21 18 -66 0 -67 -26 -11 -282 -110 -512 -296 -683 -163 -152 -340 -223 -538
-219 -439 10 -771 355 -820 853 -8 80 -31 104 -74 77z"/>
</g>
</svg>
